<?xml version="1.0" encoding="utf-8"?>
<!DOCTYPE svg PUBLIC "-//W3C//DTD SVG 1.1//EN" "http://www.w3.org/Graphics/SVG/1.1/DTD/svg11.dtd">
<svg version="1.1" id="Layer_1" xmlns="http://www.w3.org/2000/svg" xmlns:xlink="http://www.w3.org/1999/xlink" x="0px" y="0px"
	 width="256px" height="256px" viewBox="0 0 256 256" enable-background="new 0 0 256 256" xml:space="preserve">
<path fill="#494368" d="M35.411,186.25c1.531,0,2.794,0.536,3.867,1.608c1.07,1.07,1.606,2.373,1.606,3.865v18.989H21.473
	c-1.531,0-2.794-0.535-3.865-1.606C16.535,208.033,16,206.731,16,205.24v-9.037h20.329v-4.479c0-0.268-0.077-0.459-0.269-0.65
	c-0.191-0.192-0.382-0.269-0.649-0.269H16.001v-4.555H35.411L35.411,186.25z M36.328,206.157v-5.398H20.555v4.479
	c0,0.268,0.078,0.457,0.269,0.65c0.19,0.191,0.382,0.269,0.649,0.269H36.328L36.328,206.157z M80.24,186.25h4.861l-9.188,24.462
	h-3.712l-8.231-18.185l-7.772,18.185l-0.076-0.039l0.036,0.039h-3.676l-9.607-24.462h4.822l6.625,16.231l7.043-16.231h5.207
	l7.466,16.231L80.24,186.25z M105.966,186.25c1.531,0,2.796,0.536,3.867,1.608c1.073,1.07,1.608,2.373,1.608,3.865v9.035h-20.33
	v4.479c0,0.268,0.078,0.457,0.269,0.648c0.192,0.193,0.383,0.271,0.65,0.271h19.41v4.555h-19.41c-1.531,0-2.793-0.536-3.867-1.605
	c-1.071-1.074-1.606-2.375-1.606-3.868v-13.515c0-1.531,0.536-2.793,1.606-3.865c1.073-1.074,2.374-1.608,3.867-1.608
	L105.966,186.25L105.966,186.25z M91.114,196.204h15.774v-4.48c0-0.267-0.078-0.458-0.27-0.65c-0.191-0.191-0.383-0.268-0.652-0.268
	H92.031c-0.266,0-0.458,0.077-0.649,0.268c-0.19,0.192-0.268,0.383-0.268,0.65V196.204z M140.5,191.762v0.919h-4.556v-0.919
	c0-0.265-0.077-0.458-0.269-0.648c-0.188-0.191-0.382-0.269-0.65-0.269h-13.934c-0.27,0-0.46,0.078-0.652,0.269
	c-0.191,0.19-0.269,0.384-0.269,0.648v3.562c0,0.268,0.077,0.458,0.269,0.65c0.192,0.191,0.382,0.269,0.652,0.269h13.934
	c1.531,0,2.794,0.536,3.867,1.606c1.072,1.073,1.607,2.375,1.607,3.867v3.561c0,1.531-0.536,2.794-1.607,3.866
	c-1.072,1.073-2.374,1.609-3.867,1.609h-13.934c-1.531,0-2.796-0.536-3.867-1.609c-1.073-1.072-1.609-2.373-1.609-3.866v-0.919
	h4.559v0.919c0,0.268,0.075,0.459,0.266,0.65c0.192,0.191,0.383,0.269,0.652,0.269h13.934c0.27,0,0.46-0.077,0.652-0.269
	c0.192-0.191,0.267-0.383,0.267-0.65v-3.561c0-0.268-0.075-0.457-0.267-0.649c-0.191-0.192-0.382-0.27-0.652-0.27h-13.934
	c-1.531,0-2.795-0.535-3.867-1.607c-1.071-1.069-1.609-2.373-1.609-3.866v-3.562c0-1.53,0.538-2.793,1.609-3.867
	c1.071-1.07,2.372-1.606,3.867-1.606h13.934c1.531,0,2.794,0.536,3.867,1.606C139.964,188.93,140.5,190.231,140.5,191.762z
	 M150.147,186.25h13.935c1.533,0,2.797,0.536,3.869,1.608c1.074,1.07,1.608,2.373,1.608,3.865v13.515
	c0,1.531-0.538,2.793-1.608,3.868c-1.072,1.071-2.375,1.606-3.869,1.606h-13.935c-1.531,0-2.792-0.536-3.866-1.606
	c-1.072-1.074-1.609-2.375-1.609-3.868v-13.515c0-1.531,0.538-2.793,1.609-3.865C147.351,186.784,148.655,186.25,150.147,186.25
	L150.147,186.25z M164.082,190.806h-13.935c-0.268,0-0.459,0.077-0.65,0.268c-0.193,0.191-0.267,0.383-0.267,0.649v13.515
	c0,0.266,0.076,0.456,0.267,0.649c0.191,0.191,0.383,0.268,0.65,0.268h13.935c0.269,0,0.462-0.077,0.653-0.268
	c0.191-0.193,0.266-0.384,0.266-0.649v-13.515c0-0.266-0.076-0.458-0.266-0.649C164.543,190.922,164.351,190.806,164.082,190.806z
	 M205.237,186.25c1.531,0,2.795,0.536,3.868,1.608c1.074,1.07,1.607,2.373,1.607,3.865v18.989h-4.518v-18.989
	c0-0.267-0.076-0.458-0.266-0.65c-0.193-0.191-0.421-0.268-0.691-0.268h-9.646c-0.268,0-0.458,0.077-0.649,0.268
	c-0.193,0.192-0.268,0.383-0.268,0.65v18.989h-4.555v-18.989c0-0.267-0.079-0.458-0.271-0.65c-0.19-0.191-0.383-0.268-0.65-0.268
	h-9.687c-0.268,0-0.458,0.077-0.651,0.268c-0.191,0.192-0.269,0.383-0.269,0.65v18.989h-4.554V186.25H205.237L205.237,186.25z
	 M234.526,186.25c1.531,0,2.794,0.536,3.865,1.608c1.074,1.07,1.609,2.373,1.609,3.865v9.035h-20.33v4.479
	c0,0.268,0.079,0.457,0.27,0.648c0.191,0.193,0.384,0.271,0.649,0.271h19.41v4.555h-19.41c-1.531,0-2.793-0.536-3.868-1.605
	c-1.072-1.074-1.605-2.375-1.605-3.868v-13.515c0-1.531,0.535-2.793,1.605-3.865c1.074-1.074,2.375-1.608,3.868-1.608
	L234.526,186.25L234.526,186.25z M219.671,196.204h15.775v-4.48c0-0.267-0.078-0.458-0.27-0.65
	c-0.191-0.191-0.383-0.268-0.649-0.268H220.59c-0.267,0-0.458,0.077-0.649,0.268c-0.192,0.192-0.269,0.383-0.269,0.65
	L219.671,196.204L219.671,196.204z"/>
<path fill="#494368" d="M239.962,98.968l-57.427-52.679l-8.078,8.805l47.854,43.875H33.688l47.855-43.914l-8.079-8.805
	L16.039,98.969H16v34.724c0,15.696,15.123,28.485,33.689,28.485h35.413c18.57,0,33.691-12.788,33.691-28.485v-22.817h18.375v22.817
	c0,15.696,15.123,28.485,33.691,28.485h35.412c18.568,0,33.691-12.788,33.691-28.485L239.962,98.968L239.962,98.968z"/>
<path fill="#36A2EB" d="M157.338,159.932c-6.369-13.03-12.103-28.636-19.958-37.706v11.706
	C137.38,145.496,145.593,155.476,157.338,159.932z"/>
<path fill="#36A2EB" d="M119.005,133.932v-18.773c-13.881,3.281-22.148,22.575-32.98,47.244
	C104.266,162.08,119.005,149.43,119.005,133.932z"/>
<path fill="#36A2EB" d="M208.956,162.333c9.959-0.615,18.735-4.905,24.426-11.275C220.586,152.464,214.054,157.046,208.956,162.333z
	"/>
<path fill="#FFCE56" d="M57.343,162.418h27.972c9.577,0,18.231-3.408,24.375-8.858C95.024,140.645,84.069,127.839,57.343,162.418z"
	/>
<path fill="#FFCE56" d="M199.846,112.906c-25.705,0-26.303,32.428-42.245,47.125c4.129,1.529,8.684,2.387,13.47,2.387h35.412
	c13.976,0,25.995-7.244,31.088-17.521C226.081,129.317,217.306,112.906,199.846,112.906z"/>
<path opacity="0.8" fill="#FE819D" enable-background="new    " d="M49.902,162.418h35.413c5.032,0,9.807-0.946,14.101-2.628
	c-10.954-25.018-22.429-52.13-41.257-52.13c-19.277,0-26.613,18.142-35.243,43.3C29.066,157.909,38.875,162.418,49.902,162.418z"/>
<path opacity="0.8" fill="#FE819D" enable-background="new    " d="M212.091,133.894c-23.996,0-35.395,13.436-44.484,28.375
	c1.139,0.098,2.295,0.15,3.465,0.15h35.41c13.539,0,25.235-6.798,30.586-16.565C228.785,138.394,220.361,133.894,212.091,133.894z"
	/>
</svg>
