<svg width="60" height="60" viewBox="0 0 60 60" xmlns="http://www.w3.org/2000/svg"><title>Artboard 2</title><path d="M52.892 1H8.24C5.988 1 4 2.87 4 5.076v.067c0 .134.2.334.2.468l4.504 40.76c.066.603.264 1.137.596 1.605.398.802 1.06 1.403 1.855 1.804l17.822 8.82c.596.265 1.192.4 1.788.4.596 0 1.193-.134 1.79-.4l17.754-8.82c1.456-.736 2.318-2.273 2.25-3.876l4.374-40.427c0-.133.066-.334.066-.467v-.067C57 2.87 55.145 1 52.892 1zM19.767 28.797l6.758 6.816c1.325 1.337 1.325 3.54 0 4.877a3.418 3.418 0 0 1-4.836 0l-9.873-9.955s-.132 0-.132-.067c-.53-.535-1.06-1.136-1.06-1.804 0-.2.066-.4.066-.668 0-.87.4-1.805 1.06-2.473 0 0 .067 0 .067-.067l3.18-3.207 6.758-6.816a3.42 3.42 0 0 1 4.837 0c1.325 1.336 1.325 3.54 0 4.878l-7.553 7.75.727.735zm30.608 1.67c-.066 0-.066.068 0 0l-3.18 3.208-6.757 6.815a3.418 3.418 0 0 1-4.836 0c-1.325-1.336-1.325-3.54 0-4.877l7.486-7.55-.795-.803-6.758-6.816c-1.325-1.336-1.325-3.54 0-4.877a3.42 3.42 0 0 1 4.837 0l9.87 9.956s.067 0 .067.067c.53.534.794 1.136.926 1.804 0 .133 0 .267.067.334v.268a3.14 3.14 0 0 1-.928 2.472z" fill="#4BC0C0" fill-rule="evenodd"/></svg>