<?xml version="1.0" encoding="UTF-8" standalone="no"?>
<svg width="60px" height="60px" viewBox="0 0 60 60" version="1.1" xmlns="http://www.w3.org/2000/svg" xmlns:xlink="http://www.w3.org/1999/xlink">
    <!-- Generator: Sketch 3.6.1 (26313) - http://www.bohemiancoding.com/sketch -->
    <title>Footer</title>
    <desc>Created with Sketch.</desc>
    <defs>
        <polygon id="path-1" points="23 0.5 45.9496732 13.75 45.9496732 40.25 23 53.5 0.0503267997 40.25 0.0503267997 13.75 "></polygon>
    </defs>
    <g id="Page-1" stroke="none" stroke-width="1" fill="none" fill-rule="evenodd">
        <g id="Desktop-HD" transform="translate(-688.000000, -1752.000000)">
            <g id="Footer" transform="translate(335.000000, 1752.000000)">
                <g id="Icon" transform="translate(360.000000, 3.000000)">
                    <g id="Group-5">
                        <mask id="mask-2" fill="white">
                            <use xlink:href="#path-1"></use>
                        </mask>
                        <use id="Polygon-5" xlink:href="#path-1"></use>
                        <g id="Path-Copy" mask="url(#mask-2)">
                            <g transform="translate(-19.000000, 20.635753)" id="Mask">
                                <path d="M26.6025901,25.775863 C33.8492441,15.8590287 35.1305976,1.41580873 40.9174598,1.41580873 C46.704322,1.41580873 47.6180371,16.2849328 53.4048994,15.0194754 C59.1917616,13.754018 57.3643314,8.69218858 65.8923389,8.69218858 C74.4203464,8.69218858 83.862069,37.1649793 83.862069,37.1649793 L16.5517241,37.1649793 C16.5517241,37.1649793 19.3559361,35.6926973 26.6025901,25.775863 Z" fill="#E6E9EE"></path>
                                <path d="M26.8505747,11.3264699 C35.6019984,0.2313979 36.4137931,12.0343743 44.137931,12.0343743 C51.862069,12.0343743 50.0229885,1.06185659 57.0114943,1.06185658 C64,1.06185657 64.3678161,13.0962308 74.6666667,13.0962308 C84.9655172,13.0962308 96,37.5189315 96,37.5189315 L14.7126437,37.5189315 C14.7126437,37.5189315 18.099151,22.4215419 26.8505747,11.3264699 Z" fill="#F3F5FA"></path>
                                <path d="M12.137931,24.4227007 C20.8893548,13.3276287 19.4942529,0 27.2183908,0 C34.9425287,0 36.7816092,20.8831788 43.4022989,18.7594657 C50.0229885,16.6357526 49.2873563,5.30928275 59.5862069,5.30928275 C69.8850575,5.30928275 81.2873563,37.1649793 81.2873563,37.1649793 L-2.61349052e-15,37.1649793 C-2.61349052e-15,37.1649793 3.38650731,35.5177727 12.137931,24.4227007 Z" fill-opacity="0.8" fill="#D5D7DC"></path>
                            </g>
                        </g>
                    </g>
                    <polygon id="Polygon-5" stroke="#E7E9ED" stroke-width="3" points="23 0.5 45.9496732 13.75 45.9496732 40.25 23 53.5 0.0503267997 40.25 0.0503267997 13.75 "></polygon>
                </g>
            </g>
        </g>
    </g>
</svg>