<svg width="60" height="60" viewBox="0 0 60 60" xmlns="http://www.w3.org/2000/svg"><title>Artboard 2</title><g fill="none" fill-rule="evenodd"><path d="M41.257 56.734A28.91 28.91 0 0 1 30 59a28.91 28.91 0 0 1-11.257-2.266l7.375-17.515A9.97 9.97 0 0 0 30 40a9.97 9.97 0 0 0 3.882-.78l7.375 17.514z" fill="#E7E9ED"/><path d="M26.118 39.22l-7.375 17.514C8.318 52.34 1 42.024 1 30 1 13.984 13.984 1 30 1s29 12.984 29 29c0 12.024-7.318 22.34-17.743 26.734L33.882 39.22A10.003 10.003 0 0 0 40 30c0-5.523-4.477-10-10-10s-10 4.477-10 10c0 4.146 2.523 7.703 6.118 9.22z" stroke="#FFF" fill="#36A2EB"/></g></svg>